<?xml version="1.0" encoding="UTF-8"?>
<svg version="1.1" xmlns="http://www.w3.org/2000/svg" width="256" height="256">
<path d="M0 0 C8.29275108 6.98060693 13.28658287 15.77862724 15.625 26.3125 C16.14365944 36.37648806 16.16521387 45.75392255 12.625 55.3125 C12.36976562 56.10269531 12.11453125 56.89289062 11.8515625 57.70703125 C9.29944066 64.95365243 5.08459299 71.13413634 0.84814453 77.47607422 C-1.17099097 80.50759862 -3.14881785 83.56537546 -5.125 86.625 C-6.16914063 88.22794922 -6.16914063 88.22794922 -7.234375 89.86328125 C-9.79819321 93.91097562 -12.08571028 98.10528646 -14.375 102.3125 C-14.79378418 103.07828369 -15.21256836 103.84406738 -15.64404297 104.63305664 C-28.03960783 126.02537746 -28.03960783 126.02537746 -29.625 149.9375 C-28.49902188 153.37691913 -28.49902188 153.37691913 -26.375 156.3125 C-24.0066396 156.91311424 -24.0066396 156.91311424 -21.375 156.3125 C-18.74177335 154.54041291 -18.74177335 154.54041291 -16.3125 152.125 C-15.47589844 151.34769531 -14.63929687 150.57039062 -13.77734375 149.76953125 C-11.31333828 147.34094957 -11.31333828 147.34094957 -9.19140625 144.51171875 C-8.29228516 143.42310547 -8.29228516 143.42310547 -7.375 142.3125 C-6.715 142.3125 -6.055 142.3125 -5.375 142.3125 C-5.148125 141.590625 -4.92125 140.86875 -4.6875 140.125 C-3.10629099 136.73669498 -1.03762085 134.93724573 1.625 132.3125 C3.3988695 130.28598848 5.14793772 128.25270224 6.875 126.1875 C7.35171143 125.6205542 7.82842285 125.0536084 8.31958008 124.46948242 C13.52287619 118.26765272 18.73064768 112.05975081 23.6796875 105.65234375 C27.9188624 100.18430297 32.28689233 95.69272424 37.625 91.3125 C38.50929688 90.53003906 39.39359375 89.74757813 40.3046875 88.94140625 C55.3964968 75.79111618 72.64731358 66.87183213 93 67 C93.92466064 67.00491455 94.84932129 67.0098291 95.80200195 67.01489258 C102.4641463 67.12930193 108.41513829 67.74755712 114.625 70.3125 C115.45773438 70.64121094 116.29046875 70.96992187 117.1484375 71.30859375 C131.7260369 77.79001871 140.46041856 90.27392398 146.3359375 104.6328125 C148.79164464 111.64274016 150.625 118.85499034 150.625 126.3125 C161.845 126.3125 173.065 126.3125 184.625 126.3125 C184.625 138.5225 184.625 150.7325 184.625 163.3125 C173.405 163.3125 162.185 163.3125 150.625 163.3125 C150.295 167.2725 149.965 171.2325 149.625 175.3125 C147.0627848 192.71132618 141.37590695 208.68613957 131.625 223.3125 C130.965 223.3125 130.305 223.3125 129.625 223.3125 C129.46 223.993125 129.295 224.67375 129.125 225.375 C126.88611646 229.75948027 123.41104856 232.25227422 119.625 235.3125 C118.93019531 235.91578125 118.23539063 236.5190625 117.51953125 237.140625 C106.91070074 246.02962688 94.28399325 249.8222002 80.5625 249.125 C67.59946375 247.84278663 57.05727001 243.31562123 48.16015625 233.62890625 C39.80563684 222.66068245 36.88368061 211.95572832 37.84375 198.171875 C39.85257942 183.41470506 47.36901885 170.66621519 56.625 159.3125 C57.3675 158.3225 58.11 157.3325 58.875 156.3125 C69.71999267 143.51824394 85.21268206 135.60117323 100.875 130.5625 C101.90403442 130.22774658 101.90403442 130.22774658 102.95385742 129.88623047 C106.60859236 128.75174076 109.79398022 128.04521955 113.625 128.3125 C113.19872794 126.24765022 112.75848551 124.18568179 112.3125 122.125 C112.06886719 120.97644531 111.82523438 119.82789062 111.57421875 118.64453125 C110.4537253 114.71127648 109.21418606 111.59288687 105.9765625 108.984375 C99.21710291 105.37525178 92.14494538 103.99476868 84.546875 105.80859375 C73.08609536 109.80181815 62.92608978 118.17194096 55.26171875 127.390625 C53.67620628 129.25237234 52.01216939 130.93138182 50.25 132.625 C44.83240858 137.95775218 40.24284014 144.01955823 35.51953125 149.9609375 C31.34955644 155.20365245 27.089478 160.31833817 22.625 165.3125 C21.55765625 166.5190625 21.55765625 166.5190625 20.46875 167.75 C-1.55774293 192.49208795 -1.55774293 192.49208795 -18.09765625 193.55078125 C-30.94382149 193.87994199 -41.20638753 191.70860204 -51.375 183.3125 C-62.45611848 172.69225987 -67.29694258 161.00468948 -67.77954102 145.73779297 C-67.9014939 135.60757301 -66.78135792 126.9141714 -63.375 117.3125 C-62.9625 116.12914063 -62.55 114.94578125 -62.125 113.7265625 C-55.03283343 94.82755046 -44.40360997 77.21379086 -33.1875 60.5 C-31.33898482 57.73877342 -31.33898482 57.73877342 -29.49121094 54.97705078 C-28.48053123 53.46987357 -27.46329916 51.96709532 -26.4453125 50.46484375 C-22.88541067 44.95466077 -21.58728686 40.89339267 -21.375 34.3125 C-24.25674227 32.9883378 -24.25674227 32.9883378 -26.53125 34.203125 C-27.3046875 34.65171875 -28.078125 35.1003125 -28.875 35.5625 C-29.6484375 36.00078125 -30.421875 36.4390625 -31.21875 36.890625 C-33.39948407 38.22260514 -33.39948407 38.22260514 -35.03125 39.984375 C-36.375 41.3125 -36.375 41.3125 -38.375 41.3125 C-38.601875 41.869375 -38.82875 42.42625 -39.0625 43 C-40.73396766 45.94496684 -42.92776352 47.99406544 -45.375 50.3125 C-48.381818 48.97250502 -50.37262609 47.51404709 -52.625 45.125 C-55.10725257 42.55788409 -57.64751502 40.17961909 -60.375 37.875 C-68.78881145 30.5643693 -68.78881145 30.5643693 -71.375 26.3125 C-70.97800822 19.96063159 -63.98232462 14.73862222 -59.5625 10.75 C-42.84750328 -3.36131454 -20.36870133 -14.25412042 0 0 Z M105.9375 168.0625 C105.32455078 168.31515625 104.71160156 168.5678125 104.08007812 168.828125 C97.95941392 171.42437705 92.8717381 174.89939183 87.875 179.25 C87.11703125 179.89839844 86.3590625 180.54679688 85.578125 181.21484375 C83.47134143 183.47752931 82.57898599 185.3947237 81.625 188.3125 C80.965 188.3125 80.305 188.3125 79.625 188.3125 C78.77821949 190.18146555 77.94813789 192.05800181 77.125 193.9375 C76.6609375 194.98164063 76.196875 196.02578125 75.71875 197.1015625 C74.57960633 200.44576284 74.2801118 202.80942126 74.625 206.3125 C76.42493774 209.01240662 77.708773 210.8543865 80.625 212.3125 C86.26339145 212.68839276 89.74484997 212.45748557 94.625 209.3125 C107.31953138 197.82697161 112.23717523 181.96639723 113.625 165.3125 C111.07249927 165.3125 108.29301893 167.06362551 105.9375 168.0625 Z " fill="#FEDA19" transform="translate(71.375,6.6875)"/>
</svg>
